HIERARCHY
ROOT Hips
{
	OFFSET 0.000000 83.214638 0.000000
	CHANNELS 6 Xposition Yposition Zposition Xrotation Yrotation Zrotation
	JOINT Pelvis
	{
		OFFSET 0.000000 0.000000 0.000000
		CHANNELS 3 Xrotation Yrotation Zrotation
		JOINT LeftUpLeg
		{
			OFFSET 8.479700 -4.795502 -0.379100
			CHANNELS 3 Xrotation Yrotation Zrotation
			JOINT LeftLeg
			{
				OFFSET 0.024144 -32.555107 0.112900
				CHANNELS 3 Xrotation Yrotation Zrotation
				JOINT LeftFoot
				{
					OFFSET -0.024144 -32.638630 -3.012600
					CHANNELS 3 Xrotation Yrotation Zrotation
					JOINT LeftToeBase
					{
						OFFSET 0.970200 -13.225400 11.864200
						CHANNELS 3 Xrotation Yrotation Zrotation
						End Site
						{
							OFFSET 0.000000 12.319262 0.000000
						}
					}
					JOINT LFootTongue
					{
						OFFSET 1.142400 -1.059800 6.665200
						CHANNELS 3 Xrotation Yrotation Zrotation
						End Site
						{
							OFFSET 0.000000 12.319262 0.000000
						}
					}
				}
				JOINT LeftPantLeg
				{
					OFFSET 0.918482 -16.533964 -2.284700
					CHANNELS 3 Xrotation Yrotation Zrotation
					End Site
					{
						OFFSET 0.350399 24.744368 0.000000
					}
				}
			}
		}
		JOINT RightUpLeg
		{
			OFFSET -8.479700 -4.795502 -0.379100
			CHANNELS 3 Xrotation Yrotation Zrotation
			JOINT RightLeg
			{
				OFFSET -0.023144 -32.555092 0.112900
				CHANNELS 3 Xrotation Yrotation Zrotation
				JOINT RightFoot
				{
					OFFSET 0.023144 -32.638641 -3.012700
					CHANNELS 3 Xrotation Yrotation Zrotation
					JOINT RightToeBase
					{
						OFFSET -0.970200 -13.225400 11.864200
						CHANNELS 3 Xrotation Yrotation Zrotation
						End Site
						{
							OFFSET 0.000000 12.319244 0.000000
						}
					}
					JOINT RFootTongue
					{
						OFFSET -1.142200 -1.059800 6.665200
						CHANNELS 3 Xrotation Yrotation Zrotation
						End Site
						{
							OFFSET 0.000000 12.319243 0.000000
						}
					}
				}
				JOINT RightPantLeg
				{
					OFFSET -0.919482 -16.533978 -2.284800
					CHANNELS 3 Xrotation Yrotation Zrotation
					End Site
					{
						OFFSET -0.350400 24.744419 0.000000
					}
				}
			}
		}
	}
	JOINT Spine
	{
		OFFSET 0.000000 7.722000 1.166200
		CHANNELS 3 Xrotation Yrotation Zrotation
		JOINT Spine1
		{
			OFFSET 0.000000 12.024101 0.248800
			CHANNELS 3 Xrotation Yrotation Zrotation
			JOINT Spine2
			{
				OFFSET 0.000000 11.502998 -0.491200
				CHANNELS 3 Xrotation Yrotation Zrotation
				JOINT Neck
				{
					OFFSET 0.000000 18.430702 -3.123100
					CHANNELS 3 Xrotation Yrotation Zrotation
					JOINT Head
					{
						OFFSET 0.000000 9.051102 1.034000
						CHANNELS 3 Xrotation Yrotation Zrotation
						JOINT HairB
						{
							OFFSET 0.208400 24.786102 24.822300
							CHANNELS 3 Xrotation Yrotation Zrotation
							End Site
							{
								OFFSET 0.000000 32.263779 0.000000
							}
						}
						JOINT HairA
						{
							OFFSET -7.081100 24.428299 23.196600
							CHANNELS 3 Xrotation Yrotation Zrotation
							End Site
							{
								OFFSET 0.000000 32.263779 0.000000
							}
						}
						JOINT Hat
						{
							OFFSET 16.728800 15.048294 -15.439601
							CHANNELS 3 Xrotation Yrotation Zrotation
							End Site
							{
								OFFSET 0.000000 32.263779 0.000000
							}
						}
					}
				}
				JOINT LeftShoulder
				{
					OFFSET 6.197800 13.665199 -4.064700
					CHANNELS 3 Xrotation Yrotation Zrotation
					JOINT LeftArm
					{
						OFFSET 7.778100 -0.187103 -1.709300
						CHANNELS 3 Xrotation Yrotation Zrotation
						JOINT LeftForeArm
						{
							OFFSET 22.049376 0.000000 0.000000
							CHANNELS 3 Xrotation Yrotation Zrotation
							JOINT LeftHand
							{
								OFFSET 23.009392 0.000000 0.000000
								CHANNELS 3 Xrotation Yrotation Zrotation
								JOINT LeftHandThumb1
								{
									OFFSET 3.507191 -2.063065 3.133727
									CHANNELS 3 Xrotation Yrotation Zrotation
									JOINT LeftHandThumb2
									{
										OFFSET 3.101337 -1.790558 1.790558
										CHANNELS 3 Xrotation Yrotation Zrotation
										JOINT LeftHandThumb3
										{
											OFFSET 3.058640 -1.765907 1.765906
											CHANNELS 3 Xrotation Yrotation Zrotation
											End Site
											{
												OFFSET -0.415260 3.926476 -0.049563
											}
										}
									}
								}
								JOINT LeftHandIndex1
								{
									OFFSET 11.334419 -0.901459 3.706815
									CHANNELS 3 Xrotation Yrotation Zrotation
									JOINT LeftHandIndex2
									{
										OFFSET 3.283112 0.000000 0.000000
										CHANNELS 3 Xrotation Yrotation Zrotation
										JOINT LeftHandIndex3
										{
											OFFSET 3.323853 0.000000 0.000000
											CHANNELS 3 Xrotation Yrotation Zrotation
											End Site
											{
												OFFSET -1.135597 3.097809 0.402452
											}
										}
									}
								}
								JOINT LeftHandMiddle1
								{
									OFFSET 11.335861 0.000000 0.000000
									CHANNELS 3 Xrotation Yrotation Zrotation
									JOINT LeftHandMiddle2
									{
										OFFSET 3.410492 0.000000 0.000000
										CHANNELS 3 Xrotation Yrotation Zrotation
										JOINT LeftHandMiddle3
										{
											OFFSET 3.312172 0.000000 0.000000
											CHANNELS 3 Xrotation Yrotation Zrotation
											End Site
											{
												OFFSET -1.150200 3.080154 0.400270
											}
										}
									}
								}
								JOINT LeftHandRing1
								{
									OFFSET 11.514786 -0.013176 -3.003090
									CHANNELS 3 Xrotation Yrotation Zrotation
									JOINT LeftHandRing2
									{
										OFFSET 3.053307 0.000000 0.000000
										CHANNELS 3 Xrotation Yrotation Zrotation
										JOINT LeftHandRing3
										{
											OFFSET 3.295807 0.000000 0.000000
											CHANNELS 3 Xrotation Yrotation Zrotation
											End Site
											{
												OFFSET -1.281006 3.013344 0.375733
											}
										}
									}
								}
								JOINT LeftHandPinky1
								{
									OFFSET 10.518692 -0.960396 -5.730441
									CHANNELS 3 Xrotation Yrotation Zrotation
									JOINT LeftHandPinky2
									{
										OFFSET 2.861649 0.000000 0.000000
										CHANNELS 3 Xrotation Yrotation Zrotation
										JOINT LeftHandPinky3
										{
											OFFSET 2.863380 0.000000 0.000000
											CHANNELS 3 Xrotation Yrotation Zrotation
											End Site
											{
												OFFSET -0.843597 2.711159 0.369971
											}
										}
									}
								}
							}
							JOINT LSleeve
							{
								OFFSET 6.676277 -0.344902 -1.011730
								CHANNELS 3 Xrotation Yrotation Zrotation
								End Site
								{
									OFFSET 0.000000 14.885353 0.000000
								}
							}
						}
					}
				}
				JOINT RightShoulder
				{
					OFFSET -6.197800 13.665199 -4.064700
					CHANNELS 3 Xrotation Yrotation Zrotation
					JOINT RightArm
					{
						OFFSET -7.778100 -0.187103 -1.709300
						CHANNELS 3 Xrotation Yrotation Zrotation
						JOINT RightForeArm
						{
							OFFSET -22.049376 0.000000 0.000000
							CHANNELS 3 Xrotation Yrotation Zrotation
							JOINT RightHand
							{
								OFFSET -23.009392 0.000000 0.000000
								CHANNELS 3 Xrotation Yrotation Zrotation
								JOINT RightHandThumb1
								{
									OFFSET -3.507191 -2.063065 3.133727
									CHANNELS 3 Xrotation Yrotation Zrotation
									JOINT RightHandThumb2
									{
										OFFSET -3.101337 -1.790558 1.790558
										CHANNELS 3 Xrotation Yrotation Zrotation
										JOINT RightHandThumb3
										{
											OFFSET -3.058640 -1.765907 1.765906
											CHANNELS 3 Xrotation Yrotation Zrotation
											End Site
											{
												OFFSET 0.415260 3.926476 -0.049563
											}
										}
									}
								}
								JOINT RightHandIndex1
								{
									OFFSET -11.334419 -0.901459 3.706815
									CHANNELS 3 Xrotation Yrotation Zrotation
									JOINT RightHandIndex2
									{
										OFFSET -3.283112 0.000000 0.000000
										CHANNELS 3 Xrotation Yrotation Zrotation
										JOINT RightHandIndex3
										{
											OFFSET -3.323853 0.000000 0.000000
											CHANNELS 3 Xrotation Yrotation Zrotation
											End Site
											{
												OFFSET 1.135597 3.097809 0.402452
											}
										}
									}
								}
								JOINT RightHandMiddle1
								{
									OFFSET -11.335861 0.000000 0.000000
									CHANNELS 3 Xrotation Yrotation Zrotation
									JOINT RightHandMiddle2
									{
										OFFSET -3.410492 0.000000 0.000000
										CHANNELS 3 Xrotation Yrotation Zrotation
										JOINT RightHandMiddle3
										{
											OFFSET -3.312172 0.000000 0.000000
											CHANNELS 3 Xrotation Yrotation Zrotation
											End Site
											{
												OFFSET 1.150200 3.080154 0.400270
											}
										}
									}
								}
								JOINT RightHandRing1
								{
									OFFSET -11.514786 -0.013176 -3.003090
									CHANNELS 3 Xrotation Yrotation Zrotation
									JOINT RightHandRing2
									{
										OFFSET -3.053307 0.000000 0.000000
										CHANNELS 3 Xrotation Yrotation Zrotation
										JOINT RightHandRing3
										{
											OFFSET -3.295807 0.000000 0.000000
											CHANNELS 3 Xrotation Yrotation Zrotation
											End Site
											{
												OFFSET 1.281006 3.013344 0.375733
											}
										}
									}
								}
								JOINT RightHandPinky1
								{
									OFFSET -10.518692 -0.960396 -5.730441
									CHANNELS 3 Xrotation Yrotation Zrotation
									JOINT RightHandPinky2
									{
										OFFSET -2.861649 0.000000 0.000000
										CHANNELS 3 Xrotation Yrotation Zrotation
										JOINT RightHandPinky3
										{
											OFFSET -2.863380 0.000000 0.000000
											CHANNELS 3 Xrotation Yrotation Zrotation
											End Site
											{
												OFFSET 0.843597 2.711159 0.369971
											}
										}
									}
								}
							}
							JOINT RSleeve
							{
								OFFSET -6.676277 -0.344902 -1.011730
								CHANNELS 3 Xrotation Yrotation Zrotation
								End Site
								{
									OFFSET 0.000000 14.885353 0.000000
								}
							}
						}
					}
				}
				JOINT Backpack
				{
					OFFSET 0.000000 -2.471497 36.677502
					CHANNELS 3 Xrotation Yrotation Zrotation
					End Site
					{
						OFFSET 0.000000 20.427315 0.000000
					}
				}
				JOINT Hood
				{
					OFFSET 0.000000 18.754097 -10.431000
					CHANNELS 3 Xrotation Yrotation Zrotation
					JOINT Hood1
					{
						OFFSET 0.000000 -5.011002 -7.685901
						CHANNELS 3 Xrotation Yrotation Zrotation
						End Site
						{
							OFFSET 0.000000 9.175140 0.000000
						}
					}
				}
				JOINT LHoodieString
				{
					OFFSET 5.250500 16.397697 3.089900
					CHANNELS 3 Xrotation Yrotation Zrotation
					JOINT LHoodieString1
					{
						OFFSET 0.257700 -6.364304 3.694600
						CHANNELS 3 Xrotation Yrotation Zrotation
						JOINT LHoodieString2
						{
							OFFSET 0.000000 -9.643799 2.679100
							CHANNELS 3 Xrotation Yrotation Zrotation
							End Site
							{
								OFFSET 0.000000 10.009018 0.000000
							}
						}
					}
				}
				JOINT RHoodieString
				{
					OFFSET -5.250500 16.397697 3.089900
					CHANNELS 3 Xrotation Yrotation Zrotation
					JOINT RHoodieString1
					{
						OFFSET -0.257700 -6.364304 3.694600
						CHANNELS 3 Xrotation Yrotation Zrotation
						JOINT RHoodieString2
						{
							OFFSET 0.000000 -9.643799 2.679100
							CHANNELS 3 Xrotation Yrotation Zrotation
							End Site
							{
								OFFSET 0.000000 10.009018 0.000000
							}
						}
					}
				}
			}
			JOINT LBackpack_Strap
			{
				OFFSET 15.223200 -7.719803 -6.610900
				CHANNELS 3 Xrotation Yrotation Zrotation
				End Site
				{
					OFFSET 0.000000 16.040596 0.000000
				}
			}
			JOINT RBackpack_Strap
			{
				OFFSET -15.223000 -7.719803 -6.610900
				CHANNELS 3 Xrotation Yrotation Zrotation
				End Site
				{
					OFFSET 0.000000 16.040596 0.000000
				}
			}
		}
	}
	JOINT BoyFacialAnim_Joint
	{
		OFFSET 1.000000 -82.208099 -1.550900
		CHANNELS 3 Xrotation Yrotation Zrotation
		End Site
		{
			OFFSET 0.000000 30.012791 0.000000
		}
	}
}
MOTION
Frames: 4
Frame Time: 0.033333
-9.264415 39.501236 73.390984 17.627461 33.307076 3.369121 0.000001 -0.000000 -0.000000 -46.489143 -23.533813 -12.554677 108.952493 1.715069 6.407295 28.724767 9.998517 -2.720853 -0.000001 0.000000 0.000000 -0.000001 0.000000 -0.000000 0.000000 -0.000003 -0.000000 -9.615719 -20.241327 17.659271 85.303763 -8.289175 2.203761 49.392578 -7.900160 3.105239 -0.000000 -0.000001 0.000001 -0.000000 -0.000001 0.000001 0.000001 -0.000001 -0.000000 6.367761 2.602740 -3.238517 9.375907 6.887478 -6.452289 9.249316 6.727782 -6.876690 -22.918973 2.555293 -5.342086 -34.166368 -11.220152 -6.934564 -0.000000 -0.000002 -0.000001 -0.000000 -0.000002 -0.000001 -0.000000 -0.000002 -0.000001 3.139565 -12.917606 -29.996254 -0.974067 -31.518909 -16.083933 0.000006 -45.054574 0.000001 -42.836966 22.297530 25.258830 3.472812 1.736260 -5.877930 15.851947 -0.025029 5.128489 -0.000000 0.000000 -0.000001 -1.638333 -1.880515 -19.806177 2.598554 4.866370 -56.182254 -0.000005 -0.000002 -0.000002 -4.245658 4.513953 -68.172330 3.411803 5.319969 -65.323731 0.000001 0.000002 0.000001 -0.704254 4.639425 -51.965240 4.221039 5.620196 -73.797564 -0.000001 0.000004 -0.000003 -1.038077 7.953803 -15.772573 2.108130 4.500486 -50.181461 -0.000000 0.000001 -0.000002 -0.000002 0.000002 0.000001 4.348063 7.548085 9.742607 41.442432 62.486853 -28.412052 -0.000059 69.234759 0.000041 -45.569714 -18.312552 21.230197 8.274117 -2.459655 11.441939 21.632032 -18.190343 -18.375750 -0.000000 -0.000001 0.000001 -1.970752 3.447259 17.290649 1.827115 -3.700171 52.547702 -0.000003 0.000001 0.000000 2.167789 -6.220646 52.226215 6.285267 -4.363872 110.482879 0.000004 0.000005 -0.000001 -4.557690 -1.933877 57.668687 5.452409 -4.588938 99.842565 -0.000001 0.000005 0.000003 -5.036601 -2.923375 65.218375 4.073732 -4.620578 82.795075 0.000000 -0.000002 -0.000000 0.000001 0.000000 -0.000001 -0.000003 -0.000002 0.000001 -0.000003 -0.000002 0.000001 -0.000003 -0.000002 0.000001 -0.000003 -0.000002 0.000001 -0.000003 -0.000002 0.000002 -0.000003 0.000001 -0.000001 -0.000003 -0.000002 0.000001 -0.000003 -0.000002 0.000002 -0.000003 0.000001 -0.000001 -0.000000 0.000001 -0.000002 -0.000000 0.000001 -0.000002 0.000001 -0.000000 -0.000000 
-11.828956 37.679955 75.579575 23.200696 34.464506 2.687674 -0.000001 0.000001 -0.000000 -51.409734 -25.642041 -11.174095 112.751328 -1.938888 5.834494 23.935875 5.020335 -0.809792 -0.000001 -0.000001 0.000000 -0.000001 -0.000001 -0.000000 0.000000 -0.000002 0.000000 -11.121567 -22.595056 21.247740 83.152656 -8.602122 2.428333 47.861864 -11.192892 1.091233 0.000002 0.000000 -0.000000 0.000002 0.000000 -0.000000 0.000000 0.000000 0.000000 8.484040 2.827460 -3.716058 12.288217 7.884674 -7.911277 12.050214 7.677191 -8.570857 -25.850509 1.250726 -6.770017 -39.122456 -14.047342 -8.180940 -0.000000 0.000001 -0.000000 -0.000000 0.000001 -0.000000 -0.000000 0.000001 -0.000000 3.040413 -13.023050 -30.061957 -10.547609 -40.886520 -17.364875 0.000008 -43.286460 0.000011 -38.546555 23.032632 22.854663 3.472814 1.736254 -5.877946 15.851945 -0.025025 5.128478 0.000002 -0.000000 0.000001 -0.522774 -4.510819 -6.679349 2.702998 4.934483 -57.404858 -0.000002 0.000001 0.000002 -4.924540 1.250233 -52.191972 3.184646 5.210058 -62.848621 0.000002 -0.000001 0.000004 -0.871773 4.139116 -47.925822 2.701551 4.933573 -57.388151 0.000002 -0.000000 0.000001 5.165848 9.602802 -54.160989 3.883852 5.511546 -70.322098 -0.000001 0.000003 0.000000 -0.000001 0.000001 -0.000001 4.217534 9.160448 9.159111 31.272277 56.042286 -25.875227 -0.000056 70.639128 0.000049 -50.619297 -14.271132 19.791592 8.274112 -2.459650 11.441934 21.632058 -18.190370 -18.375734 0.000003 0.000001 0.000000 -1.970737 3.447272 17.290646 1.827115 -3.700150 52.547698 -0.000005 -0.000000 0.000000 2.167793 -6.220623 52.226218 6.285267 -4.363906 110.482852 0.000003 -0.000001 -0.000002 -4.557684 -1.933864 57.668660 5.452424 -4.588914 99.842544 -0.000001 0.000001 -0.000001 -5.036580 -2.923377 65.218375 4.073731 -4.620563 82.795027 0.000001 0.000001 0.000000 0.000001 0.000000 -0.000004 0.000002 -0.000001 0.000001 0.000002 -0.000001 0.000001 0.000002 -0.000001 0.000001 0.000002 -0.000001 0.000001 0.000002 -0.000001 0.000002 0.000000 0.000003 -0.000003 0.000002 -0.000001 0.000001 0.000002 -0.000001 0.000002 0.000000 0.000003 -0.000003 0.000001 -0.000000 -0.000001 0.000001 -0.000000 -0.000001 -0.000001 0.000001 -0.000000 
-14.455211 37.216026 77.898796 29.545786 35.490271 4.362655 -0.000001 0.000001 0.000003 -54.140174 -24.196891 -10.400826 109.980382 -2.160142 6.346812 25.000970 4.938060 0.413816 -0.000002 0.000001 -0.000002 -0.000002 0.000001 -0.000002 0.000000 0.000001 -0.000000 -14.696783 -23.249795 19.904715 79.470023 -8.899526 3.303436 45.559592 -10.594120 -4.296935 0.000003 0.000000 -0.000003 0.000003 0.000000 -0.000003 0.000000 -0.000001 0.000000 11.653206 2.891965 -4.531586 17.061731 8.985664 -10.618412 16.482573 8.458946 -11.673848 -29.439177 -0.045526 -8.887783 -42.451122 -18.002675 -10.634062 0.000000 0.000003 0.000001 0.000000 0.000003 0.000001 0.000000 0.000003 0.000001 3.034765 -13.029318 -30.065817 -26.230600 -52.448941 -25.302912 0.000004 -41.915112 0.000007 -32.921993 23.823259 22.788349 3.472819 1.736238 -5.877937 15.851956 -0.025013 5.128460 0.000001 -0.000001 -0.000002 2.046816 6.791949 -20.604253 2.741155 4.958589 -57.847399 -0.000000 -0.000001 -0.000000 -1.300058 3.790025 -50.097580 2.727598 4.950060 -57.690428 0.000001 -0.000001 0.000004 -1.017837 4.588082 -54.127999 2.607749 4.872510 -56.290680 0.000003 0.000003 -0.000003 4.885570 9.198139 -55.881702 4.270641 5.634302 -74.303381 0.000000 0.000004 0.000000 0.000000 0.000001 0.000001 4.201931 9.735404 7.675009 13.958762 47.189808 -18.520364 0.000037 77.523760 -0.000051 -59.262792 -15.708291 15.171440 8.274115 -2.459655 11.441941 21.632037 -18.190363 -18.375745 -0.000000 0.000001 -0.000001 -1.970723 3.447242 17.290661 1.827117 -3.700153 52.547685 -0.000001 0.000001 0.000002 2.167804 -6.220632 52.226229 6.285271 -4.363877 110.482872 0.000000 0.000002 0.000004 -4.557679 -1.933866 57.668674 5.452420 -4.588939 99.842551 -0.000003 -0.000001 0.000002 -5.036601 -2.923375 65.218369 4.073711 -4.620588 82.795055 -0.000001 -0.000002 -0.000002 0.000001 0.000000 -0.000002 0.000003 0.000001 0.000002 0.000003 0.000001 0.000002 0.000003 0.000001 0.000002 0.000003 0.000001 0.000002 0.000003 0.000001 0.000002 0.000001 0.000000 -0.000000 0.000003 0.000001 0.000002 0.000003 0.000001 0.000002 0.000001 0.000000 -0.000000 -0.000002 -0.000001 0.000001 -0.000002 -0.000001 0.000001 -0.000001 0.000001 0.000003 
-16.821766 36.735409 81.412575 36.678795 37.004865 5.688434 0.000003 -0.000002 0.000001 -54.910589 -21.890980 -7.781919 104.449220 1.815128 6.806051 22.103273 5.403007 4.489749 0.000000 0.000000 -0.000000 0.000000 0.000000 0.000000 -0.000000 -0.000002 0.000001 -17.121655 -21.574951 18.597787 73.036463 -7.788225 4.258453 43.319095 -8.412260 -9.590922 -0.000002 0.000000 -0.000000 -0.000002 0.000000 -0.000000 -0.000001 0.000001 -0.000000 14.249232 2.868716 -4.679194 21.007615 9.075129 -12.324271 20.398877 8.837744 -13.626019 -30.093592 -0.490609 -11.304195 -39.734352 -21.645209 -14.907986 -0.000000 -0.000003 -0.000000 -0.000000 -0.000003 -0.000000 -0.000000 -0.000003 -0.000000 3.034774 -13.029317 -30.065820 -44.891391 -59.599008 -40.081674 0.000013 -40.500095 0.000021 -29.067516 21.940461 23.366318 3.472809 1.736249 -5.877925 15.851945 -0.025014 5.128465 0.000001 -0.000002 0.000001 9.722670 12.619633 -51.784739 2.969291 5.094345 -60.450903 -0.000001 0.000002 0.000000 4.760496 8.841513 -51.696947 2.200843 4.575926 -51.353102 0.000001 0.000002 0.000004 -0.195243 5.434519 -57.871489 3.496181 5.357769 -66.230610 0.000002 0.000000 -0.000002 1.341423 9.177770 -31.010066 3.228410 5.232219 -63.329596 -0.000001 0.000001 -0.000000 -0.000001 0.000001 -0.000002 4.354665 7.553048 4.708770 4.145372 40.146896 -17.797813 -0.001018 86.070226 0.000997 -66.757791 -17.237739 5.167834 8.274101 -2.459648 11.441942 21.632051 -18.190365 -18.375724 0.000001 -0.000001 0.000001 -1.970741 3.447246 17.290655 1.827117 -3.700155 52.547692 -0.000002 0.000000 0.000002 2.167787 -6.220639 52.226232 6.285278 -4.363889 110.482852 0.000003 0.000005 0.000002 -4.557688 -1.933870 57.668681 5.452415 -4.588917 99.842537 -0.000002 0.000001 0.000001 -5.036602 -2.923378 65.218362 4.073723 -4.620588 82.795041 0.000001 -0.000003 -0.000000 -0.000001 -0.000000 0.000000 -0.000002 0.000000 -0.000000 -0.000002 0.000000 -0.000000 -0.000002 0.000000 -0.000000 -0.000002 0.000000 -0.000000 -0.000002 0.000000 0.000001 0.000003 -0.000003 -0.000000 -0.000002 0.000000 -0.000000 -0.000002 0.000000 0.000001 0.000003 -0.000003 -0.000000 0.000002 0.000000 -0.000001 0.000002 0.000000 -0.000001 0.000003 -0.000002 0.000001 
